<svg xmlns="http://www.w3.org/2000/svg" width="980" height="860" viewBox="0 0 980 860">
<style>
  text { font-family: Arial, Helvetica, sans-serif; }
</style>
<rect width="100%" height="100%" fill="white" />
<text x="40" y="40" font-size="26" font-weight="700" fill="#222">Project 2 Benchmark Graphs</text>
<text x="40" y="68" font-size="14" fill="#555">Quick Sort vs Merge Sort on the current Project 1 benchmark outputs</text>

<rect x="700" y="30" width="220" height="54" rx="8" fill="#f8f8f8" stroke="#ccc" />
<line x1="720" y1="50" x2="760" y2="50" stroke="#1f77b4" stroke-width="3" />
<text x="770" y="54" font-size="13" fill="#333">Quick Sort</text>
<line x1="720" y1="70" x2="760" y2="70" stroke="#d62728" stroke-width="3" />
<text x="770" y="74" font-size="13" fill="#333">Merge Sort</text>

<text x="40" y="95" font-size="18" font-weight="700" fill="#222">Average Critical Operation Count</text>
<line x1="90" y1="110" x2="90" y2="360" stroke="#333" stroke-width="1.5" />
<line x1="90" y1="360" x2="870" y2="360" stroke="#333" stroke-width="1.5" />
<line x1="90.0" y1="360" x2="90.0" y2="366" stroke="#333" />
<text x="90.0" y="384" font-size="12" text-anchor="middle" fill="#333">100</text>
<line x1="160.9" y1="360" x2="160.9" y2="366" stroke="#333" />
<text x="160.9" y="384" font-size="12" text-anchor="middle" fill="#333">200</text>
<line x1="231.8" y1="360" x2="231.8" y2="366" stroke="#333" />
<text x="231.8" y="384" font-size="12" text-anchor="middle" fill="#333">300</text>
<line x1="302.7" y1="360" x2="302.7" y2="366" stroke="#333" />
<text x="302.7" y="384" font-size="12" text-anchor="middle" fill="#333">400</text>
<line x1="373.6" y1="360" x2="373.6" y2="366" stroke="#333" />
<text x="373.6" y="384" font-size="12" text-anchor="middle" fill="#333">500</text>
<line x1="444.5" y1="360" x2="444.5" y2="366" stroke="#333" />
<text x="444.5" y="384" font-size="12" text-anchor="middle" fill="#333">600</text>
<line x1="515.5" y1="360" x2="515.5" y2="366" stroke="#333" />
<text x="515.5" y="384" font-size="12" text-anchor="middle" fill="#333">700</text>
<line x1="586.4" y1="360" x2="586.4" y2="366" stroke="#333" />
<text x="586.4" y="384" font-size="12" text-anchor="middle" fill="#333">800</text>
<line x1="657.3" y1="360" x2="657.3" y2="366" stroke="#333" />
<text x="657.3" y="384" font-size="12" text-anchor="middle" fill="#333">900</text>
<line x1="728.2" y1="360" x2="728.2" y2="366" stroke="#333" />
<text x="728.2" y="384" font-size="12" text-anchor="middle" fill="#333">1000</text>
<line x1="799.1" y1="360" x2="799.1" y2="366" stroke="#333" />
<text x="799.1" y="384" font-size="12" text-anchor="middle" fill="#333">1100</text>
<line x1="870.0" y1="360" x2="870.0" y2="366" stroke="#333" />
<text x="870.0" y="384" font-size="12" text-anchor="middle" fill="#333">1200</text>
<line x1="84" y1="360.0" x2="870" y2="360.0" stroke="#ddd" />
<text x="80" y="364.0" font-size="12" text-anchor="end" fill="#333">0</text>
<line x1="84" y1="297.5" x2="870" y2="297.5" stroke="#ddd" />
<text x="80" y="301.5" font-size="12" text-anchor="end" fill="#333">3,679</text>
<line x1="84" y1="235.0" x2="870" y2="235.0" stroke="#ddd" />
<text x="80" y="239.0" font-size="12" text-anchor="end" fill="#333">7,358</text>
<line x1="84" y1="172.5" x2="870" y2="172.5" stroke="#ddd" />
<text x="80" y="176.5" font-size="12" text-anchor="end" fill="#333">11,037</text>
<line x1="84" y1="110.0" x2="870" y2="110.0" stroke="#ddd" />
<text x="80" y="114.0" font-size="12" text-anchor="end" fill="#333">14,716</text>

<polyline fill="none" stroke="#1f77b4" stroke-width="2.5" points="90.0,348.7 160.9,333.3 231.8,316.2 302.7,297.7 373.6,279.8 444.5,257.3 515.5,237.3 586.4,216.0 657.3,197.5 728.2,171.5 799.1,149.0 870.0,128.5" />
<circle cx="90.0" cy="348.7" r="3" fill="#1f77b4" />
<circle cx="160.9" cy="333.3" r="3" fill="#1f77b4" />
<circle cx="231.8" cy="316.2" r="3" fill="#1f77b4" />
<circle cx="302.7" cy="297.7" r="3" fill="#1f77b4" />
<circle cx="373.6" cy="279.8" r="3" fill="#1f77b4" />
<circle cx="444.5" cy="257.3" r="3" fill="#1f77b4" />
<circle cx="515.5" cy="237.3" r="3" fill="#1f77b4" />
<circle cx="586.4" cy="216.0" r="3" fill="#1f77b4" />
<circle cx="657.3" cy="197.5" r="3" fill="#1f77b4" />
<circle cx="728.2" cy="171.5" r="3" fill="#1f77b4" />
<circle cx="799.1" cy="149.0" r="3" fill="#1f77b4" />
<circle cx="870.0" cy="128.5" r="3" fill="#1f77b4" />
<polyline fill="none" stroke="#d62728" stroke-width="2.5" points="90.0,350.8 160.9,338.2 231.8,324.4 302.7,309.7 373.6,294.5 444.5,278.5 515.5,262.4 586.4,245.9 657.3,229.0 728.2,212.1 799.1,194.6 870.0,176.8" />
<circle cx="90.0" cy="350.8" r="3" fill="#d62728" />
<circle cx="160.9" cy="338.2" r="3" fill="#d62728" />
<circle cx="231.8" cy="324.4" r="3" fill="#d62728" />
<circle cx="302.7" cy="309.7" r="3" fill="#d62728" />
<circle cx="373.6" cy="294.5" r="3" fill="#d62728" />
<circle cx="444.5" cy="278.5" r="3" fill="#d62728" />
<circle cx="515.5" cy="262.4" r="3" fill="#d62728" />
<circle cx="586.4" cy="245.9" r="3" fill="#d62728" />
<circle cx="657.3" cy="229.0" r="3" fill="#d62728" />
<circle cx="728.2" cy="212.1" r="3" fill="#d62728" />
<circle cx="799.1" cy="194.6" r="3" fill="#d62728" />
<circle cx="870.0" cy="176.8" r="3" fill="#d62728" />
<text x="480" y="395" font-size="13" text-anchor="middle" fill="#333">Input size n</text>
<text x="25" y="240" font-size="13" text-anchor="middle" transform="rotate(-90 25,240)" fill="#333">Average comparisons</text>
<text x="40" y="485" font-size="18" font-weight="700" fill="#222">Average Execution Time</text>
<line x1="90" y1="500" x2="90" y2="750" stroke="#333" stroke-width="1.5" />
<line x1="90" y1="750" x2="870" y2="750" stroke="#333" stroke-width="1.5" />
<line x1="90.0" y1="750" x2="90.0" y2="756" stroke="#333" />
<text x="90.0" y="774" font-size="12" text-anchor="middle" fill="#333">100</text>
<line x1="160.9" y1="750" x2="160.9" y2="756" stroke="#333" />
<text x="160.9" y="774" font-size="12" text-anchor="middle" fill="#333">200</text>
<line x1="231.8" y1="750" x2="231.8" y2="756" stroke="#333" />
<text x="231.8" y="774" font-size="12" text-anchor="middle" fill="#333">300</text>
<line x1="302.7" y1="750" x2="302.7" y2="756" stroke="#333" />
<text x="302.7" y="774" font-size="12" text-anchor="middle" fill="#333">400</text>
<line x1="373.6" y1="750" x2="373.6" y2="756" stroke="#333" />
<text x="373.6" y="774" font-size="12" text-anchor="middle" fill="#333">500</text>
<line x1="444.5" y1="750" x2="444.5" y2="756" stroke="#333" />
<text x="444.5" y="774" font-size="12" text-anchor="middle" fill="#333">600</text>
<line x1="515.5" y1="750" x2="515.5" y2="756" stroke="#333" />
<text x="515.5" y="774" font-size="12" text-anchor="middle" fill="#333">700</text>
<line x1="586.4" y1="750" x2="586.4" y2="756" stroke="#333" />
<text x="586.4" y="774" font-size="12" text-anchor="middle" fill="#333">800</text>
<line x1="657.3" y1="750" x2="657.3" y2="756" stroke="#333" />
<text x="657.3" y="774" font-size="12" text-anchor="middle" fill="#333">900</text>
<line x1="728.2" y1="750" x2="728.2" y2="756" stroke="#333" />
<text x="728.2" y="774" font-size="12" text-anchor="middle" fill="#333">1000</text>
<line x1="799.1" y1="750" x2="799.1" y2="756" stroke="#333" />
<text x="799.1" y="774" font-size="12" text-anchor="middle" fill="#333">1100</text>
<line x1="870.0" y1="750" x2="870.0" y2="756" stroke="#333" />
<text x="870.0" y="774" font-size="12" text-anchor="middle" fill="#333">1200</text>
<line x1="84" y1="750.0" x2="870" y2="750.0" stroke="#ddd" />
<text x="80" y="754.0" font-size="12" text-anchor="end" fill="#333">0</text>
<line x1="84" y1="687.5" x2="870" y2="687.5" stroke="#ddd" />
<text x="80" y="691.5" font-size="12" text-anchor="end" fill="#333">60,165</text>
<line x1="84" y1="625.0" x2="870" y2="625.0" stroke="#ddd" />
<text x="80" y="629.0" font-size="12" text-anchor="end" fill="#333">120,331</text>
<line x1="84" y1="562.5" x2="870" y2="562.5" stroke="#ddd" />
<text x="80" y="566.5" font-size="12" text-anchor="end" fill="#333">180,496</text>
<line x1="84" y1="500.0" x2="870" y2="500.0" stroke="#ddd" />
<text x="80" y="504.0" font-size="12" text-anchor="end" fill="#333">240,662</text>
<polyline fill="none" stroke="#1f77b4" stroke-width="2.5" points="90.0,738.7 160.9,729.1 231.8,728.1 302.7,732.5 373.6,727.5 444.5,720.3 515.5,711.2 586.4,708.2 657.3,700.9 728.2,698.3 799.1,688.7 870.0,642.4" />
<circle cx="90.0" cy="738.7" r="3" fill="#1f77b4" />
<circle cx="160.9" cy="729.1" r="3" fill="#1f77b4" />
<circle cx="231.8" cy="728.1" r="3" fill="#1f77b4" />
<circle cx="302.7" cy="732.5" r="3" fill="#1f77b4" />
<circle cx="373.6" cy="727.5" r="3" fill="#1f77b4" />
<circle cx="444.5" cy="720.3" r="3" fill="#1f77b4" />
<circle cx="515.5" cy="711.2" r="3" fill="#1f77b4" />
<circle cx="586.4" cy="708.2" r="3" fill="#1f77b4" />
<circle cx="657.3" cy="700.9" r="3" fill="#1f77b4" />
<circle cx="728.2" cy="698.3" r="3" fill="#1f77b4" />
<circle cx="799.1" cy="688.7" r="3" fill="#1f77b4" />
<circle cx="870.0" cy="642.4" r="3" fill="#1f77b4" />
<polyline fill="none" stroke="#d62728" stroke-width="2.5" points="90.0,730.5 160.9,721.4 231.8,704.1 302.7,686.0 373.6,658.9 444.5,518.5 515.5,698.3 586.4,696.5 657.3,686.2 728.2,682.0 799.1,650.5 870.0,615.3" />
<circle cx="90.0" cy="730.5" r="3" fill="#d62728" />
<circle cx="160.9" cy="721.4" r="3" fill="#d62728" />
<circle cx="231.8" cy="704.1" r="3" fill="#d62728" />
<circle cx="302.7" cy="686.0" r="3" fill="#d62728" />
<circle cx="373.6" cy="658.9" r="3" fill="#d62728" />
<circle cx="444.5" cy="518.5" r="3" fill="#d62728" />
<circle cx="515.5" cy="698.3" r="3" fill="#d62728" />
<circle cx="586.4" cy="696.5" r="3" fill="#d62728" />
<circle cx="657.3" cy="686.2" r="3" fill="#d62728" />
<circle cx="728.2" cy="682.0" r="3" fill="#d62728" />
<circle cx="799.1" cy="650.5" r="3" fill="#d62728" />
<circle cx="870.0" cy="615.3" r="3" fill="#d62728" />
<text x="480" y="785" font-size="13" text-anchor="middle" fill="#333">Input size n</text>
<text x="25" y="630" font-size="13" text-anchor="middle" transform="rotate(-90 25,630)" fill="#333">Average time (ns)</text>
</svg>
